<svg width="1680" height="240"  fill="none" xmlns="http://www.w3.org/2000/svg">
<rect width="1680" height="240" fill="#1E1E1E"/>
<g clip-path="url(#clip0_0_1)">
<rect width="1680" height="240" fill="white"/>
<path d="M383.32 144.754C386.641 146.629 390 148.328 393.398 149.852C396.836 151.336 400.391 152.605 404.062 153.66C407.734 154.676 411.582 155.457 415.605 156.004C419.668 156.551 423.984 156.824 428.555 156.824C434.062 156.824 438.75 156.473 442.617 155.77C446.484 155.027 449.629 154.031 452.051 152.781C454.512 151.492 456.289 149.969 457.383 148.211C458.516 146.453 459.082 144.539 459.082 142.469C459.082 139.148 457.695 136.531 454.922 134.617C452.148 132.664 447.871 131.688 442.09 131.688C439.551 131.688 436.875 131.863 434.062 132.215C431.25 132.527 428.398 132.879 425.508 133.27C422.656 133.66 419.824 134.031 417.012 134.383C414.238 134.695 411.621 134.852 409.16 134.852C405.059 134.852 401.113 134.324 397.324 133.27C393.574 132.215 390.234 130.633 387.305 128.523C384.414 126.414 382.109 123.777 380.391 120.613C378.672 117.449 377.812 113.758 377.812 109.539C377.812 107.039 378.145 104.559 378.809 102.098C379.512 99.6367 380.605 97.293 382.09 95.0664C383.613 92.8008 385.566 90.7109 387.949 88.7969C390.332 86.8438 393.203 85.1641 396.562 83.7578C399.961 82.3516 403.867 81.2578 408.281 80.4766C412.734 79.6562 417.793 79.2461 423.457 79.2461C427.559 79.2461 431.68 79.4805 435.82 79.9492C439.961 80.3789 443.984 81.0039 447.891 81.8242C451.836 82.6445 455.625 83.6406 459.258 84.8125C462.891 85.9453 466.27 87.2148 469.395 88.6211L461.25 103.621C458.672 102.488 455.898 101.453 452.93 100.516C449.961 99.5391 446.855 98.6992 443.613 97.9961C440.371 97.293 437.012 96.7461 433.535 96.3555C430.098 95.9258 426.582 95.7109 422.988 95.7109C417.871 95.7109 413.652 96.082 410.332 96.8242C407.051 97.5664 404.434 98.5234 402.48 99.6953C400.527 100.828 399.16 102.117 398.379 103.562C397.637 104.969 397.266 106.375 397.266 107.781C397.266 110.516 398.496 112.762 400.957 114.52C403.418 116.238 407.168 117.098 412.207 117.098C414.238 117.098 416.562 116.961 419.18 116.688C421.836 116.375 424.609 116.043 427.5 115.691C430.43 115.34 433.398 115.027 436.406 114.754C439.453 114.441 442.402 114.285 445.254 114.285C450.645 114.285 455.41 114.891 459.551 116.102C463.73 117.312 467.227 119.051 470.039 121.316C472.852 123.543 474.98 126.258 476.426 129.461C477.871 132.625 478.594 136.18 478.594 140.125C478.594 145.398 477.363 150.105 474.902 154.246C472.48 158.348 469.004 161.824 464.473 164.676C459.98 167.488 454.551 169.637 448.184 171.121C441.816 172.566 434.727 173.289 426.914 173.289C421.758 173.289 416.719 172.957 411.797 172.293C406.875 171.668 402.148 170.77 397.617 169.598C393.125 168.387 388.828 166.961 384.727 165.32C380.664 163.641 376.895 161.805 373.418 159.812L383.32 144.754ZM566.484 96.707H532.676V80.418H618.867V96.707H585.059V172H566.484V96.707ZM678.574 80.418H725.156C732.188 80.418 738.281 81.1602 743.438 82.6445C748.594 84.0898 752.871 86.1992 756.27 88.9727C759.668 91.7461 762.188 95.125 763.828 99.1094C765.508 103.094 766.348 107.605 766.348 112.645C766.348 116.043 765.938 119.285 765.117 122.371C764.297 125.418 763.027 128.23 761.309 130.809C759.629 133.387 757.5 135.691 754.922 137.723C752.344 139.715 749.316 141.375 745.84 142.703L765.762 172H743.027L725.801 145.984H725.273L697.148 145.926V172H678.574V80.418ZM725.625 129.871C729.141 129.871 732.207 129.461 734.824 128.641C737.48 127.82 739.688 126.668 741.445 125.184C743.242 123.699 744.57 121.902 745.43 119.793C746.328 117.645 746.777 115.262 746.777 112.645C746.777 107.527 745.02 103.582 741.504 100.809C737.988 97.9961 732.695 96.5898 725.625 96.5898H697.148V129.871H725.625ZM828.223 80.418H906.211V96.707H846.797V114.988H899.414V130.281H846.797V155.77H907.441V172H828.223V80.418ZM999.141 80.418H1018.83L1063.12 172H1043.61L1036.29 156.59H982.793L975.703 172H956.133L999.141 80.418ZM1028.96 141.297L1009.16 99.6953L989.883 141.297H1028.96ZM1117.27 80.418H1135.84L1169.12 113.816L1202.4 80.418H1220.98V172H1202.4V106.141L1169.12 138.191L1135.84 106.141V172H1117.27V80.418ZM1284.55 80.418H1303.24V172H1284.55V80.418Z" fill="black"/>
</g>
<defs>
<clipPath id="clip0_0_1">
<rect width="1680" height="240" fill="white"/>
</clipPath>
</defs>
</svg>
